<svg width="1500" height="1500" viewBox="0 0 1500 1500" fill="none" xmlns="http://www.w3.org/2000/svg">
<g clip-path="url(#clip0_9_238)">
<path d="M1295.91 1213.24C1335.3 1184.5 1362.44 1135.12 1353.82 1087.1C1319.11 1127.2 1271.34 1153.71 1218.97 1161.96C1198.76 1165.06 1175.96 1166.41 1162.29 1181.63C1153.79 1191.1 1150.67 1204.45 1151.14 1217.17C1151.61 1229.89 1155.33 1242.24 1159.01 1254.43L1158.43 1257.55C1206.98 1253.18 1256.53 1241.99 1295.91 1213.24Z" fill="#F0F0F0"/>
<path d="M1352.8 1087.15C1339.51 1125.27 1314.55 1158.24 1281.47 1181.36C1274.44 1186.47 1266.64 1190.43 1258.38 1193.11C1250.24 1195.45 1241.62 1195.58 1233.42 1193.46C1225.74 1191.65 1218.09 1188.9 1210.1 1188.98C1206 1189.09 1201.98 1190.06 1198.29 1191.82C1194.6 1193.59 1191.33 1196.12 1188.68 1199.25C1181.89 1206.86 1178.23 1216.46 1174.99 1225.98C1171.38 1236.54 1167.8 1247.57 1159.76 1255.68C1158.78 1256.66 1160.36 1258.12 1161.33 1257.14C1175.34 1243.03 1175.83 1221.56 1186.57 1205.48C1191.59 1197.98 1198.89 1191.95 1208.17 1191.22C1216.28 1190.58 1224.18 1193.41 1231.94 1195.32C1239.91 1197.5 1248.29 1197.69 1256.35 1195.88C1264.73 1193.63 1272.66 1189.98 1279.81 1185.07C1296.08 1174.27 1310.56 1160.98 1322.71 1145.69C1336.67 1128.31 1347.55 1108.66 1354.9 1087.61C1355.35 1086.31 1353.25 1085.85 1352.8 1087.15V1087.15Z" fill="white"/>
<path d="M1292.56 1174.54C1297.19 1179.57 1303.45 1182.79 1310.24 1183.62C1317.02 1184.45 1323.87 1182.84 1329.58 1179.08C1330.73 1178.32 1329.6 1176.49 1328.44 1177.26C1323.14 1180.77 1316.75 1182.27 1310.44 1181.48C1304.12 1180.69 1298.3 1177.67 1294.02 1172.96C1293.08 1171.94 1291.63 1173.53 1292.56 1174.54Z" fill="white"/>
<path d="M1237.2 1194.9C1237.64 1180.93 1243.33 1167.64 1253.13 1157.68C1254.1 1156.7 1252.52 1155.24 1251.55 1156.22C1241.38 1166.61 1235.48 1180.45 1235.05 1194.98C1235.01 1196.37 1237.16 1196.28 1237.2 1194.9Z" fill="white"/>
<path d="M1333.92 1127.55C1331.72 1125.98 1329.95 1123.88 1328.76 1121.46C1327.58 1119.03 1327.01 1116.35 1327.11 1113.65C1327.17 1112.26 1325.02 1112.36 1324.96 1113.73C1324.86 1116.72 1325.49 1119.68 1326.8 1122.36C1328.11 1125.05 1330.05 1127.37 1332.46 1129.13C1332.68 1129.31 1332.95 1129.41 1333.23 1129.4C1333.52 1129.39 1333.78 1129.27 1333.98 1129.07C1334.17 1128.86 1334.27 1128.58 1334.26 1128.3C1334.25 1128.01 1334.13 1127.74 1333.92 1127.55Z" fill="white"/>
<path d="M1210.04 1005.99C1209.98 1006.85 1209.92 1007.72 1209.84 1008.59C1208.97 1020.19 1207.15 1031.71 1204.42 1043.02C1204.22 1043.9 1204.01 1044.78 1203.78 1045.65C1196.9 1072.83 1185.03 1098.49 1168.79 1121.34C1162.31 1130.42 1155.16 1139 1147.39 1147C1136.65 1158.04 1124.13 1169.16 1117.85 1182.71C1117.18 1184.12 1116.6 1185.57 1116.11 1187.05L1154.66 1256.6C1154.83 1256.71 1154.98 1256.83 1155.15 1256.95L1156.56 1259.8C1156.99 1259.41 1157.43 1259 1157.86 1258.62C1158.11 1258.4 1158.35 1258.16 1158.6 1257.94C1158.76 1257.78 1158.93 1257.63 1159.08 1257.5C1159.14 1257.45 1159.19 1257.4 1159.23 1257.36C1159.39 1257.23 1159.52 1257.09 1159.66 1256.97C1162.11 1254.7 1164.55 1252.4 1166.98 1250.09C1167 1250.08 1167 1250.08 1167 1250.06C1185.46 1232.36 1202.6 1212.97 1216.25 1191.59C1216.66 1190.94 1217.09 1190.29 1217.48 1189.62C1223.58 1179.95 1228.89 1169.79 1233.33 1159.26C1235.75 1153.48 1237.87 1147.58 1239.7 1141.59C1244.37 1126.1 1246.59 1109.97 1246.25 1093.79C1245.59 1061.54 1234.62 1029.86 1211.8 1007.67C1211.22 1007.1 1210.64 1006.55 1210.04 1005.99Z" fill="#F0F0F0"/>
<path d="M1209.24 1006.63C1221.57 1045.08 1221.48 1086.44 1208.98 1124.83C1206.43 1133.15 1202.59 1141.01 1197.6 1148.12C1192.52 1154.9 1185.71 1160.19 1177.89 1163.44C1170.67 1166.62 1162.9 1169.04 1156.57 1173.92C1153.37 1176.47 1150.74 1179.67 1148.86 1183.3C1146.97 1186.94 1145.88 1190.93 1145.65 1195.02C1144.81 1205.19 1147.67 1215.06 1150.8 1224.61C1154.27 1235.22 1158.05 1246.18 1156.51 1257.5C1156.32 1258.88 1158.46 1259.09 1158.64 1257.72C1161.34 1238.02 1148.81 1220.58 1147.72 1201.27C1147.21 1192.26 1149.41 1183.04 1156.38 1176.87C1162.48 1171.47 1170.48 1168.97 1177.83 1165.82C1185.5 1162.75 1192.31 1157.86 1197.65 1151.56C1202.99 1144.72 1207.12 1137.02 1209.88 1128.79C1216.38 1110.37 1219.94 1091.03 1220.44 1071.5C1221.13 1049.21 1218 1026.97 1211.2 1005.74C1210.78 1004.42 1208.82 1005.33 1209.24 1006.63Z" fill="white"/>
<path d="M1213.73 1112.71C1220.45 1113.93 1227.39 1112.73 1233.3 1109.31C1239.22 1105.88 1243.72 1100.47 1246.02 1094.03C1246.48 1092.72 1244.47 1091.95 1244.01 1093.25C1241.89 1099.26 1237.69 1104.3 1232.17 1107.47C1226.66 1110.65 1220.19 1111.75 1213.94 1110.57C1212.58 1110.32 1212.38 1112.46 1213.73 1112.71Z" fill="white"/>
<path d="M1181.77 1162.31C1173.72 1150.89 1170.27 1136.86 1172.1 1123C1172.29 1121.63 1170.15 1121.42 1169.96 1122.79C1168.08 1137.21 1171.71 1151.81 1180.11 1163.68C1180.91 1164.81 1182.57 1163.44 1181.77 1162.31Z" fill="white"/>
<path d="M1218.48 1050.27C1215.78 1050.33 1213.1 1049.73 1210.7 1048.51C1208.29 1047.29 1206.22 1045.49 1204.68 1043.27C1203.89 1042.13 1202.23 1043.5 1203.02 1044.63C1204.73 1047.07 1207.02 1049.06 1209.67 1050.42C1212.33 1051.77 1215.28 1052.45 1218.27 1052.41C1218.55 1052.42 1218.83 1052.34 1219.04 1052.16C1219.26 1051.98 1219.4 1051.72 1219.44 1051.44C1219.47 1051.16 1219.38 1050.88 1219.2 1050.66C1219.02 1050.44 1218.76 1050.3 1218.48 1050.27Z" fill="white"/>
<path d="M688.67 298.934C693.627 294.532 698.826 290.287 704.124 286.316L706.069 288.913C700.843 292.832 695.713 297.02 690.824 301.362L688.67 298.934ZM720.569 275.024C726.18 271.505 732.009 268.178 737.893 265.135L739.383 268.02C733.577 271.021 727.827 274.303 722.293 277.774L720.569 275.024ZM755.976 256.718C762.08 254.178 768.374 251.857 774.686 249.819L775.683 252.909C769.455 254.919 763.244 257.209 757.222 259.715L755.976 256.718ZM794.641 247.627L793.898 244.468C800.354 242.948 806.941 241.678 813.474 240.694L813.957 243.904C807.51 244.875 801.012 246.128 794.641 247.627ZM833.512 241.778L833.295 238.539C839.901 238.096 846.608 237.925 853.227 238.03L853.176 241.276C846.645 241.172 840.029 241.341 833.512 241.778L833.512 241.778ZM872.814 242.408L873.135 239.178C879.726 239.834 886.373 240.775 892.892 241.976L892.305 245.168C885.874 243.983 879.316 243.055 872.814 242.408L872.814 242.408ZM994.393 670.134C999.574 666.163 1004.66 661.922 1009.5 657.527L1011.68 659.932C1006.77 664.387 1001.62 668.686 996.365 672.711L994.393 670.134ZM911.499 249.532L912.347 246.399C918.736 248.132 925.135 250.155 931.368 252.411L930.265 255.463C924.115 253.238 917.801 251.242 911.499 249.532ZM1023.52 643.714C1027.98 638.94 1032.3 633.92 1036.35 628.793L1038.9 630.809C1034.79 636.005 1030.41 641.093 1025.89 645.93L1023.52 643.714ZM948.48 262.918L949.83 259.966C955.853 262.725 961.834 265.767 967.609 269.009L966.022 271.839C960.324 268.641 954.422 265.639 948.48 262.918ZM1047.92 612.869C1051.55 607.426 1054.99 601.767 1058.15 596.048L1060.99 597.621C1057.79 603.417 1054.3 609.153 1050.62 614.669L1047.92 612.869ZM982.775 282.166L984.588 279.475C990.078 283.178 995.483 287.155 1000.65 291.296L998.625 293.83C993.524 289.744 988.192 285.82 982.775 282.166ZM1066.98 578.447C1069.66 572.485 1072.14 566.339 1074.32 560.18L1077.38 561.267C1075.16 567.511 1072.66 573.739 1069.93 579.781L1066.98 578.447ZM1013.46 306.751L1015.69 304.392C1020.5 308.946 1025.18 313.754 1029.6 318.681L1027.18 320.848C1022.83 315.987 1018.21 311.244 1013.46 306.751ZM1080.15 541.37C1081.83 535.04 1083.26 528.572 1084.41 522.143L1087.6 522.714C1086.44 529.23 1084.99 535.786 1083.29 542.202L1080.15 541.37ZM1039.7 336.028L1042.28 334.067C1046.28 339.348 1050.1 344.859 1053.64 350.447L1050.9 352.186C1047.41 346.673 1043.64 341.236 1039.7 336.028ZM1087.06 502.63C1087.67 496.122 1088.01 489.505 1088.08 482.964L1091.33 482.999C1091.26 489.629 1090.91 496.336 1090.29 502.933L1087.06 502.63ZM1060.74 369.231L1063.62 367.726C1066.68 373.588 1069.55 379.66 1072.13 385.77L1069.14 387.033C1066.59 381.005 1063.77 375.016 1060.74 369.231H1060.74ZM1087.47 463.281C1087 456.774 1086.25 450.193 1085.24 443.721L1088.45 443.22C1089.47 449.78 1090.23 456.451 1090.71 463.047L1087.47 463.281ZM1076.04 405.466L1079.12 404.452C1081.18 410.737 1083.02 417.215 1084.57 423.647L1081.42 424.408C1079.89 418.055 1078.08 411.669 1076.04 405.466L1076.04 405.466Z" fill="#F0F0F0"/>
<path d="M1020.35 774.988L1042.51 700.84L1000.44 690.51L984.947 766.025L958.47 871.951C955.001 873.754 952.136 876.533 950.228 879.947C948.32 883.36 947.452 887.258 947.732 891.159C948.012 895.06 949.427 898.794 951.803 901.9C954.178 905.005 957.411 907.347 961.101 908.636C964.791 909.924 968.778 910.104 972.568 909.151C976.359 908.199 979.789 906.157 982.433 903.277C985.078 900.397 986.822 896.805 987.45 892.945C988.079 889.085 987.564 885.125 985.969 881.554L986.377 881.69L1020.35 774.988Z" fill="#FFB8B8"/>
<path d="M1189.88 775.046L1188.13 697.672L1144.92 700.821L1153.44 777.437L1160.87 886.373C1158.13 889.157 1156.26 892.685 1155.5 896.521C1154.73 900.357 1155.11 904.332 1156.57 907.957C1158.04 911.582 1160.54 914.698 1163.75 916.92C1166.97 919.142 1170.77 920.373 1174.67 920.461C1178.58 920.549 1182.43 919.49 1185.74 917.415C1189.06 915.34 1191.69 912.34 1193.32 908.785C1194.95 905.229 1195.5 901.274 1194.91 897.408C1194.32 893.542 1192.61 889.934 1189.99 887.028L1190.42 887.032L1189.88 775.046Z" fill="#FFB8B8"/>
<path d="M1003.84 1236.29H977.285L968.984 1133.8L1003.84 1133.8L1003.84 1236.29Z" fill="#FFB8B8"/>
<path d="M1010.61 1262.05L924.99 1262.05V1260.97C924.99 1256.59 925.852 1252.25 927.527 1248.2C929.202 1244.16 931.657 1240.48 934.751 1237.39C937.846 1234.29 941.52 1231.83 945.563 1230.16C949.606 1228.48 953.94 1227.62 958.316 1227.62H958.319L1010.61 1227.62L1010.61 1262.05Z" fill="#2FAD78"/>
<path d="M1146.79 1236.29H1120.24L1107.6 1133.8L1146.8 1133.8L1146.79 1236.29Z" fill="#FFB8B8"/>
<path d="M1153.56 1262.05L1067.94 1262.05V1260.97C1067.94 1256.59 1068.8 1252.25 1070.48 1248.2C1072.15 1244.16 1074.61 1240.48 1077.7 1237.39C1080.8 1234.29 1084.47 1231.83 1088.51 1230.16C1092.56 1228.48 1096.89 1227.62 1101.27 1227.62H1101.27L1153.56 1227.62L1153.56 1262.05Z" fill="#2FAD78"/>
<path d="M1142.08 1203.5H1142.08C1141.88 1203.5 1141.68 1203.49 1141.49 1203.48L1118.63 1202.21C1116.19 1202.08 1113.87 1201.09 1112.08 1199.41C1110.3 1197.74 1109.16 1195.49 1108.87 1193.05L1080.88 943.592C1080.81 943.064 1080.58 942.57 1080.22 942.176C1079.86 941.783 1079.39 941.51 1078.87 941.395C1078.35 941.279 1077.81 941.327 1077.32 941.531C1076.83 941.736 1076.41 942.087 1076.13 942.536L1040.46 999.055C1034.11 1009.08 1030.01 1020.35 1028.42 1032.1L1010.29 1181.94C1009.95 1184.44 1008.71 1186.72 1006.82 1188.38C1004.92 1190.04 1002.49 1190.96 999.971 1190.97H974.611C971.936 1190.98 969.363 1189.95 967.427 1188.1C965.49 1186.26 964.337 1183.73 964.209 1181.06L958.416 1045.29C957.477 1026.37 960.074 1007.44 966.074 989.473L1020.67 849.641L1020.99 849.551L1152.41 811.972L1152.47 1193.36C1152.4 1196.07 1151.27 1198.65 1149.33 1200.54C1147.39 1202.43 1144.79 1203.5 1142.08 1203.5Z" fill="#2FAD78"/>
<path d="M1123.18 629.687H1053.32L1001.71 654.46L1019.24 851.516L1150.41 854.998L1177.29 659.512L1123.18 629.687Z" fill="#EF0B62"/>
<path d="M1158.74 665.765L1177.29 659.512L1209.41 733.828L1139.21 757.865L1158.74 665.765Z" fill="#EF0B62"/>
<path d="M1028.04 663.096L1001.71 654.46L961.705 720.146L1028.04 754.687V663.096Z" fill="#EF0B62"/>
<path d="M1090.41 612.508C1112.72 612.508 1130.8 594.41 1130.8 572.086C1130.8 549.761 1112.72 531.664 1090.41 531.664C1068.1 531.664 1050.01 549.761 1050.01 572.086C1050.01 594.41 1068.1 612.508 1090.41 612.508Z" fill="#FFB8B8"/>
<path d="M1102.61 515.316C1095.74 514.189 1088.91 516.114 1082.08 516.337C1078.71 516.446 1075.34 516.029 1071.99 516.375C1068.65 516.721 1065.19 517.983 1063.21 520.703C1061.82 522.606 1061.19 525.162 1059.21 526.439C1057.67 527.434 1055.64 527.405 1054.09 528.383C1051.1 530.266 1051.21 534.807 1048.81 537.398C1047.66 538.629 1045.98 539.375 1045.17 540.847C1044.73 541.816 1044.49 542.869 1044.49 543.935L1043.32 559.411C1043.16 559.856 1043.11 560.335 1043.19 560.803C1043.26 561.271 1043.45 561.712 1043.75 562.085C1044.04 562.459 1044.42 562.752 1044.85 562.938C1045.29 563.124 1045.76 563.197 1046.23 563.149C1049.03 563.53 1052.42 563.666 1054.05 561.36C1055.96 558.633 1054.51 553.569 1057.67 552.516C1060.47 551.582 1062.74 555.516 1065.69 555.598C1067.91 555.66 1069.5 553.583 1070.94 551.884C1072.38 550.185 1074.76 548.573 1076.66 549.731C1078.25 550.697 1078.38 552.975 1079.58 554.397C1081.38 556.545 1084.83 556.008 1087.38 554.85C1089.94 553.691 1092.58 552.057 1095.33 552.616C1099.17 553.397 1101.16 558.058 1104.91 559.176C1110.29 560.777 1116.08 554.351 1121.12 556.823C1123.48 557.981 1124.61 560.736 1125.01 563.338C1125.42 565.94 1125.3 568.641 1126.13 571.141C1126.95 573.642 1129.11 575.999 1131.74 575.891C1131.55 574.089 1131.99 572.277 1132.98 570.761C1133.76 569.578 1134.86 568.618 1135.56 567.391C1138.01 563.145 1135.04 557.798 1135.63 552.932C1135.78 551.706 1136.15 550.507 1136.19 549.273C1136.28 545.944 1133.93 543.11 1131.71 540.627L1129.11 537.709C1126.8 534.963 1124.25 532.429 1121.49 530.137C1119.3 528.635 1117.2 527.021 1115.17 525.299C1111.12 521.386 1108.6 516.299 1102.61 515.316Z" fill="#3F3D56"/>
<path d="M208.322 889.132V377.56C208.325 375.335 209.209 373.201 210.782 371.627C212.355 370.053 214.487 369.167 216.712 369.165H949.981C952.205 369.167 954.338 370.053 955.911 371.627C957.484 373.201 958.368 375.335 958.371 377.56V889.132C958.368 891.358 957.484 893.492 955.911 895.066C954.338 896.64 952.205 897.525 949.981 897.528H216.712C214.487 897.525 212.355 896.64 210.782 895.066C209.209 893.492 208.325 891.358 208.322 889.132Z" fill="white"/>
<path d="M216.712 902.866C213.076 902.858 209.591 901.409 207.019 898.836C204.447 896.264 202.998 892.777 202.988 889.138V377.56C202.996 373.922 204.444 370.434 207.015 367.861C209.585 365.287 213.07 363.837 216.706 363.826H949.981C953.617 363.835 957.102 365.284 959.674 367.857C962.246 370.429 963.695 373.916 963.705 377.555V889.132C963.697 892.771 962.249 896.258 959.678 898.832C957.107 901.406 953.623 902.856 949.987 902.866H216.712ZM213.657 889.126C213.659 889.938 213.982 890.716 214.556 891.29C215.129 891.864 215.907 892.188 216.718 892.19H949.981C950.791 892.186 951.567 891.862 952.14 891.288C952.712 890.714 953.034 889.937 953.036 889.126V377.56C953.033 376.75 952.709 375.973 952.135 375.4C951.562 374.827 950.785 374.505 949.975 374.503H216.712C215.902 374.506 215.126 374.83 214.553 375.404C213.981 375.978 213.659 376.755 213.657 377.566V889.126Z" fill="#E4E4E4"/>
<path d="M829.544 488.657C831.289 488.685 832.953 489.399 834.177 490.644C835.401 491.889 836.087 493.566 836.087 495.313C836.087 497.059 835.401 498.736 834.177 499.981C832.953 501.226 831.289 501.94 829.544 501.969H662.773C661.899 501.984 661.03 501.827 660.217 501.506C659.404 501.185 658.661 500.707 658.033 500.099C657.404 499.491 656.902 498.765 656.554 497.962C656.206 497.16 656.019 496.297 656.005 495.422C655.991 494.547 656.149 493.678 656.47 492.865C656.792 492.051 657.27 491.309 657.878 490.681C658.487 490.053 659.213 489.55 660.015 489.203C660.817 488.856 661.68 488.67 662.554 488.657C662.627 488.655 662.7 488.655 662.773 488.657H829.544Z" fill="#E4E4E4"/>
<path d="M829.544 535.707C831.289 535.736 832.953 536.45 834.177 537.695C835.401 538.94 836.087 540.617 836.087 542.363C836.087 544.11 835.401 545.787 834.177 547.032C832.953 548.277 831.289 548.991 829.544 549.019H662.773C661.899 549.034 661.031 548.876 660.219 548.554C659.406 548.233 658.665 547.755 658.037 547.147C657.41 546.539 656.908 545.813 656.56 545.011C656.213 544.209 656.026 543.347 656.012 542.473C655.998 541.598 656.156 540.73 656.477 539.917C656.798 539.104 657.276 538.362 657.883 537.734C658.49 537.106 659.216 536.603 660.017 536.256C660.819 535.908 661.681 535.722 662.554 535.707C662.627 535.706 662.7 535.706 662.773 535.707H829.544Z" fill="#E4E4E4"/>
<path d="M829.544 582.758C831.289 582.787 832.953 583.501 834.177 584.746C835.401 585.991 836.087 587.667 836.087 589.414C836.087 591.161 835.401 592.837 834.177 594.082C832.953 595.327 831.289 596.041 829.544 596.07H662.773C661.899 596.085 661.03 595.928 660.217 595.607C659.404 595.286 658.661 594.808 658.033 594.2C657.404 593.592 656.902 592.866 656.554 592.064C656.206 591.261 656.019 590.398 656.005 589.523C655.991 588.649 656.149 587.78 656.47 586.966C656.792 586.153 657.27 585.411 657.878 584.782C658.487 584.154 659.213 583.652 660.015 583.304C660.817 582.957 661.68 582.771 662.554 582.758C662.627 582.757 662.7 582.757 662.773 582.758H829.544Z" fill="#E4E4E4"/>
<path d="M723.275 655.494C723.275 650.986 724.611 646.58 727.113 642.832C729.616 639.085 733.173 636.164 737.334 634.439C741.495 632.714 746.074 632.262 750.492 633.142C754.91 634.021 758.967 636.192 762.152 639.379C765.337 642.566 767.506 646.627 768.385 651.048C769.264 655.468 768.813 660.051 767.089 664.215C765.365 668.379 762.446 671.938 758.701 674.443C754.956 676.947 750.553 678.283 746.049 678.283C743.058 678.283 740.097 677.694 737.334 676.549C734.571 675.403 732.06 673.725 729.946 671.608C727.831 669.492 726.153 666.98 725.009 664.215C723.864 661.45 723.275 658.486 723.275 655.494Z" fill="#EF0B62"/>
<path d="M737.063 653.246H743.802V646.501C743.803 645.906 744.04 645.336 744.46 644.915C744.88 644.494 745.451 644.257 746.045 644.256C746.64 644.255 747.211 644.49 747.632 644.91C748.054 645.329 748.293 645.899 748.295 646.494V653.246H755.035C755.631 653.246 756.202 653.482 756.623 653.904C757.045 654.326 757.281 654.897 757.281 655.494C757.281 656.09 757.045 656.662 756.623 657.083C756.202 657.505 755.631 657.742 755.035 657.742H748.295V664.486C748.293 665.081 748.056 665.651 747.635 666.071C747.214 666.491 746.643 666.726 746.049 666.726C745.455 666.726 744.884 666.491 744.463 666.071C744.042 665.651 743.805 665.081 743.802 664.486V657.742H737.063C736.768 657.742 736.476 657.685 736.203 657.572C735.93 657.46 735.682 657.295 735.473 657.086C735.264 656.878 735.098 656.63 734.985 656.358C734.872 656.085 734.813 655.793 734.812 655.498C734.812 655.203 734.869 654.91 734.982 654.637C735.094 654.364 735.259 654.116 735.467 653.907C735.676 653.698 735.923 653.532 736.195 653.418C736.468 653.305 736.76 653.246 737.055 653.246H737.063Z" fill="white"/>
<path d="M509.887 549.187C509.901 559.832 508.004 570.394 504.287 580.368C502.599 584.937 500.528 589.354 498.097 593.574C490.281 607.222 479.003 618.562 465.403 626.449C451.803 634.336 436.362 638.489 420.644 638.489C404.925 638.489 389.485 634.336 375.884 626.449C362.284 618.562 351.006 607.222 343.19 593.574C342.399 592.202 341.649 590.809 340.939 589.395C334.873 577.353 331.61 564.092 331.397 550.608C331.183 537.124 334.023 523.766 339.704 511.537C345.386 499.308 353.761 488.525 364.201 479.998C374.641 471.471 386.876 465.42 399.986 462.3C413.097 459.179 426.744 459.071 439.902 461.982C453.061 464.893 465.39 470.748 475.965 479.108C486.539 487.469 495.085 498.117 500.96 510.253C506.835 522.39 509.887 535.701 509.887 549.187Z" fill="#E4E4E4"/>
<path d="M425.283 564.264C434.706 564.264 442.345 556.62 442.345 547.19C442.345 537.761 434.706 530.117 425.283 530.117C415.86 530.117 408.222 537.761 408.222 547.19C408.222 556.62 415.86 564.264 425.283 564.264Z" fill="#EF0B62"/>
<path d="M340.939 589.395C348.457 581.265 358.506 568.358 367.931 577.684C372.661 582.084 380.064 592.985 387.15 585.858L442.488 530.482C443.529 529.453 444.766 528.642 446.125 528.098C447.485 527.554 448.939 527.287 450.402 527.313C451.866 527.34 453.31 527.658 454.649 528.251C455.988 528.843 457.195 529.698 458.199 530.764L504.287 580.368C502.599 584.937 500.528 589.354 498.097 593.574H343.19L340.939 589.395Z" fill="white"/>
<path d="M498.139 798.277C497.578 798.276 497.023 798.385 496.504 798.6C495.986 798.814 495.514 799.128 495.117 799.525C494.72 799.921 494.405 800.392 494.191 800.911C493.976 801.429 493.865 801.985 493.865 802.547C493.865 803.108 493.976 803.664 494.191 804.182C494.405 804.701 494.72 805.172 495.117 805.569C495.514 805.965 495.986 806.28 496.504 806.494C497.023 806.708 497.578 806.818 498.139 806.817H542.914C543.475 806.818 544.031 806.708 544.55 806.494C545.068 806.28 545.539 805.965 545.936 805.569C546.334 805.172 546.649 804.701 546.863 804.182C547.078 803.664 547.189 803.108 547.189 802.547C547.189 801.985 547.078 801.429 546.863 800.911C546.649 800.392 546.334 799.921 545.936 799.525C545.539 799.128 545.068 798.814 544.55 798.6C544.031 798.385 543.475 798.276 542.914 798.277H498.139Z" fill="#EF0B62"/>
<path d="M296.415 735.561C295.283 735.561 294.198 736.011 293.398 736.811C292.597 737.612 292.148 738.698 292.148 739.831C292.148 740.963 292.597 742.049 293.398 742.85C294.198 743.651 295.283 744.101 296.415 744.101H544.873C546.005 744.101 547.09 743.651 547.89 742.85C548.69 742.049 549.14 740.963 549.14 739.831C549.14 738.698 548.69 737.612 547.89 736.811C547.09 736.011 546.005 735.561 544.873 735.561H296.415Z" fill="#E5E5E5"/>
<path d="M296.415 766.919C295.283 766.919 294.198 767.369 293.398 768.169C292.597 768.97 292.148 770.056 292.148 771.189C292.148 772.321 292.597 773.407 293.398 774.208C294.198 775.009 295.283 775.459 296.415 775.459H544.873C546.005 775.459 547.09 775.009 547.89 774.208C548.69 773.407 549.14 772.321 549.14 771.189C549.14 770.056 548.69 768.97 547.89 768.169C547.09 767.369 546.005 766.919 544.873 766.919H296.415Z" fill="#E5E5E5"/>
<path d="M823.544 798.277C822.984 798.276 822.428 798.385 821.909 798.6C821.391 798.814 820.92 799.128 820.522 799.525C820.125 799.921 819.811 800.392 819.596 800.911C819.381 801.429 819.27 801.985 819.27 802.547C819.27 803.108 819.381 803.664 819.596 804.182C819.811 804.701 820.125 805.172 820.522 805.569C820.92 805.965 821.391 806.28 821.909 806.494C822.428 806.708 822.984 806.818 823.544 806.817H868.319C868.88 806.818 869.436 806.708 869.955 806.494C870.473 806.28 870.945 805.965 871.342 805.569C871.739 805.172 872.054 804.701 872.268 804.182C872.483 803.664 872.594 803.108 872.594 802.547C872.594 801.985 872.483 801.429 872.268 800.911C872.054 800.392 871.739 799.921 871.342 799.525C870.945 799.128 870.473 798.814 869.955 798.6C869.436 798.385 868.88 798.276 868.319 798.277H823.544Z" fill="#EF0B62"/>
<path d="M621.82 735.561C620.688 735.561 619.603 736.011 618.803 736.811C618.002 737.612 617.553 738.698 617.553 739.831C617.553 740.963 618.002 742.049 618.803 742.85C619.603 743.651 620.688 744.101 621.82 744.101H870.278C871.41 744.101 872.495 743.651 873.295 742.85C874.095 742.049 874.545 740.963 874.545 739.831C874.545 738.698 874.095 737.612 873.295 736.811C872.495 736.011 871.41 735.561 870.278 735.561H621.82Z" fill="#E5E5E5"/>
<path d="M621.82 766.919C620.688 766.919 619.603 767.369 618.803 768.169C618.002 768.97 617.553 770.056 617.553 771.189C617.553 772.321 618.002 773.407 618.803 774.208C619.603 775.009 620.688 775.459 621.82 775.459H870.278C871.41 775.459 872.495 775.009 873.295 774.208C874.095 773.407 874.545 772.321 874.545 771.189C874.545 770.056 874.095 768.97 873.295 768.169C872.495 767.369 871.41 766.919 870.278 766.919H621.82Z" fill="#E5E5E5"/>
<path d="M504.636 972.881C500.927 978.377 496.944 983.782 492.798 988.945L490.269 986.912C494.359 981.818 498.289 976.486 501.947 971.064L504.636 972.881ZM479.67 1003.97C475.109 1008.77 470.288 1013.44 465.344 1017.85L463.185 1015.43C468.064 1011.08 472.819 1006.47 477.319 1001.73L479.67 1003.97ZM449.917 1030.5C444.634 1034.48 439.113 1038.29 433.505 1041.84L431.773 1039.09C437.307 1035.6 442.754 1031.83 447.966 1027.91L449.917 1030.5ZM414.719 1048.92L416.223 1051.79C410.346 1054.87 404.281 1057.74 398.197 1060.32L396.933 1057.33C402.936 1054.78 408.92 1051.95 414.719 1048.92ZM378.518 1064.25L379.532 1067.33C373.242 1069.4 366.789 1071.23 360.351 1072.78L359.595 1069.62C365.947 1068.1 372.313 1066.29 378.518 1064.25L378.518 1064.25ZM340.291 1073.4L340.782 1076.61C334.235 1077.61 327.562 1078.36 320.949 1078.81L320.726 1075.57C327.249 1075.12 333.832 1074.39 340.291 1073.4ZM116.365 689.295C112.332 694.43 108.461 699.802 104.859 705.263L102.152 703.474C105.803 697.939 109.727 692.493 113.815 687.289L116.365 689.295ZM301.05 1076.12L301.006 1079.36C294.387 1079.27 287.686 1078.9 281.089 1078.27L281.4 1075.04C287.91 1075.66 294.521 1076.03 301.05 1076.12ZM94.7082 722.127C91.5724 727.86 88.6353 733.796 85.9791 739.77L83.0147 738.45C85.7076 732.395 88.6847 726.378 91.8629 720.569L94.7082 722.127ZM261.906 1072.34L261.331 1075.54C254.812 1074.36 248.263 1072.9 241.865 1071.2L242.699 1068.06C249.012 1069.74 255.474 1071.18 261.906 1072.34L261.906 1072.34ZM78.7235 758.071C76.5638 764.244 74.6343 770.581 72.9882 776.907L69.8488 776.089C71.5176 769.678 73.4729 763.255 75.6611 756.999L78.7235 758.071ZM223.908 1062.22L222.82 1065.28C216.583 1063.06 210.36 1060.55 204.325 1057.82L205.66 1054.86C211.615 1057.55 217.754 1060.03 223.908 1062.22ZM68.8126 796.15C67.689 802.592 66.8189 809.161 66.2269 815.671L62.9958 815.377C63.5963 808.778 64.4777 802.122 65.6165 795.592L68.8126 796.15ZM188.081 1046.03L186.508 1048.87C180.714 1045.66 174.988 1042.16 169.488 1038.49L171.29 1035.79C176.715 1039.41 182.365 1042.86 188.081 1046.03ZM65.2523 835.339C65.1983 841.887 65.4169 848.509 65.9021 855.021L62.6664 855.262C62.1754 848.662 61.9541 841.95 62.0079 835.313L65.2523 835.339ZM155.403 1024.19L153.386 1026.73C148.204 1022.61 143.132 1018.22 138.313 1013.69L140.535 1011.33C145.289 1015.8 150.291 1020.13 155.403 1024.19ZM68.1754 874.583C69.1988 881.038 70.5067 887.533 72.0633 893.887L68.913 894.659C67.3351 888.219 66.0089 881.636 64.9715 875.091L68.1754 874.583ZM126.774 997.261L124.364 999.433C119.937 994.517 115.657 989.347 111.643 984.07L114.224 982.104C118.185 987.311 122.407 992.41 126.774 997.261ZM77.538 912.802C79.6093 918.988 81.9697 925.176 84.5544 931.195L81.5736 932.476C78.9546 926.376 76.5613 920.104 74.4623 913.833L77.538 912.802ZM102.965 965.963L100.231 967.711C96.6717 962.136 93.2843 956.318 90.1874 950.472L93.054 948.952C96.1109 954.725 99.4527 960.461 102.965 965.963H102.965Z" fill="#F0F0F0"/>
<path d="M1435.41 1263H572.163C571.743 1263 571.34 1262.83 571.043 1262.53C570.746 1262.24 570.58 1261.83 570.58 1261.41C570.58 1260.99 570.746 1260.59 571.043 1260.29C571.34 1259.99 571.743 1259.82 572.163 1259.82H1435.41C1435.83 1259.82 1436.24 1259.99 1436.53 1260.29C1436.83 1260.59 1437 1260.99 1437 1261.41C1437 1261.83 1436.83 1262.24 1436.53 1262.53C1436.24 1262.83 1435.83 1263 1435.41 1263Z" fill="#CACACA"/>
<circle cx="1070.97" cy="571.499" r="5" fill="#3F3D56"/>
<circle cx="1105.27" cy="571.499" r="5" fill="#3F3D56"/>
<g clip-path="url(#clip1_9_238)">
<path d="M360.158 818.104C353.076 818.556 345.359 818.077 337.15 818.104V799.35C344.782 800.417 352.526 800.417 360.158 799.35V818.104Z" fill="#E6E6E6"/>
<path d="M400.567 814.019H90.9734V822.648H400.567V814.019Z" fill="#E6E6E6"/>
<path d="M348.68 806.253C358.232 806.253 365.976 798.527 365.976 788.996C365.976 779.464 358.232 771.738 348.68 771.738C339.128 771.738 331.384 779.464 331.384 788.996C331.384 798.527 339.128 806.253 348.68 806.253Z" fill="#E6E6E6"/>
<path d="M348.68 802.802C356.322 802.802 362.517 796.621 362.517 788.996C362.517 781.371 356.322 775.189 348.68 775.189C341.038 775.189 334.844 781.371 334.844 788.996C334.844 796.621 341.038 802.802 348.68 802.802Z" fill="white"/>
<path d="M348.68 792.447C350.591 792.447 352.139 790.902 352.139 788.996C352.139 787.089 350.591 785.544 348.68 785.544C346.77 785.544 345.221 787.089 345.221 788.996C345.221 790.902 346.77 792.447 348.68 792.447Z" fill="#E6E6E6"/>
<path d="M360.787 789.859V788.133H346.951V789.859H360.787Z" fill="#E6E6E6"/>
<path d="M347.815 790.721H349.545V776.915H347.815V790.721Z" fill="#E6E6E6"/>
<path d="M146.629 771.925H135.185V817.124H146.629V771.925Z" fill="#E6E6E6"/>
<path d="M146.629 779.061H135.185V784.295H146.629V779.061Z" fill="#CCCCCC"/>
<path d="M146.629 801.899H135.185V807.132H146.629V801.899Z" fill="#CCCCCC"/>
<path d="M128.986 771.925H117.542V817.124H128.986V771.925Z" fill="#E6E6E6"/>
<path d="M128.986 779.061H117.542V784.295H128.986V779.061Z" fill="#CCCCCC"/>
<path d="M128.986 801.899H117.542V807.132H128.986V801.899Z" fill="#CCCCCC"/>
<path d="M156.489 771.738L146.233 776.804L166.332 817.311L176.587 812.244L156.489 771.738Z" fill="#E6E6E6"/>
<path d="M159.662 778.134L149.407 783.2L151.734 787.89L161.99 782.824L159.662 778.134Z" fill="#CCCCCC"/>
<path d="M169.817 798.6L159.562 803.666L161.889 808.357L172.145 803.29L169.817 798.6Z" fill="#CCCCCC"/>
<path d="M253.862 771.925H242.419V817.124H253.862V771.925Z" fill="#E6E6E6"/>
<path d="M253.862 779.061H242.419V784.295H253.862V779.061Z" fill="#CCCCCC"/>
<path d="M253.862 801.899H242.419V807.132H253.862V801.899Z" fill="#CCCCCC"/>
<path d="M236.22 771.925H224.776V817.124H236.22V771.925Z" fill="#E6E6E6"/>
<path d="M236.22 779.061H224.776V784.295H236.22V779.061Z" fill="#CCCCCC"/>
<path d="M236.22 801.899H224.776V807.132H236.22V801.899Z" fill="#CCCCCC"/>
<path d="M263.723 771.738L253.467 776.804L273.565 817.311L283.821 812.244L263.723 771.738Z" fill="#E6E6E6"/>
<path d="M266.896 778.134L256.64 783.2L258.968 787.89L269.223 782.824L266.896 778.134Z" fill="#CCCCCC"/>
<path d="M277.051 798.6L266.795 803.666L269.123 808.357L279.378 803.29L277.051 798.6Z" fill="#CCCCCC"/>
<path d="M361.99 666.457C363.841 666.457 365.342 664.96 365.342 663.113C365.342 661.266 363.841 659.769 361.99 659.769C360.139 659.769 358.639 661.266 358.639 663.113C358.639 664.96 360.139 666.457 361.99 666.457Z" fill="#E6E6E6"/>
<path d="M540.231 1024.13H374.191V1238.99H540.231V1024.13Z" fill="#E6E6E6"/>
<path d="M540.231 1009.46H-51.2842V1026.72H540.231V1009.46Z" fill="#E6E6E6"/>
<path d="M470.291 1036.64L469.318 1040.53H445.104L443.645 1036.64H381.974V1076.34H532.447V1036.64H470.291Z" fill="#3F3D56"/>
<path d="M470.291 1086.69L469.318 1090.57H445.104L443.645 1086.69H381.974V1126.38H532.447V1086.69H470.291Z" fill="#3F3D56"/>
<path d="M470.291 1136.74L469.318 1140.62H445.104L443.645 1136.74H381.974V1176.43H532.447V1136.74H470.291Z" fill="#3F3D56"/>
<path d="M470.291 1186.79L469.318 1190.67H445.104L443.645 1186.79H381.974V1226.48H532.447V1186.79H470.291Z" fill="#3F3D56"/>
<path d="M269.552 1006.87H218.53L220.259 984.44H267.822L269.552 1006.87Z" fill="#E6E6E6"/>
<path d="M273.011 1004.29H215.935V1009.46H273.011V1004.29Z" fill="#E6E6E6"/>
<path d="M341.762 839.906H146.752C145.376 839.906 144.056 840.452 143.083 841.422C142.11 842.393 141.563 843.71 141.563 845.083V963.731H346.951V845.083C346.951 843.71 346.404 842.393 345.431 841.422C344.458 840.452 343.138 839.906 341.762 839.906Z" fill="#3F3D56"/>
<path d="M141.563 963.73V983.145C141.563 984.519 142.11 985.835 143.083 986.806C144.056 987.777 145.376 988.323 146.752 988.323H341.762C343.138 988.323 344.458 987.777 345.431 986.806C346.404 985.835 346.951 984.519 346.951 983.145V963.73H141.563Z" fill="#E6E6E6"/>
<path d="M337.006 850.692H151.941V954.239H337.006V850.692Z" fill="white"/>
<path d="M244.473 980.988C247.339 980.988 249.662 978.67 249.662 975.811C249.662 972.952 247.339 970.634 244.473 970.634C241.608 970.634 239.284 972.952 239.284 975.811C239.284 978.67 241.608 980.988 244.473 980.988Z" fill="#3F3D56"/>
<path d="M683.353 1237.7C664.454 1238.9 643.861 1237.63 621.953 1237.7V1187.65C641.257 1190.65 661.843 1190.34 683.353 1187.65V1237.7Z" fill="#3F3D56"/>
<path d="M654.815 1192.14H649.626L651.356 1091.01H653.085L654.815 1192.14Z" fill="#3F3D56"/>
<path d="M678.165 1192.83H672.976L674.706 1091.69H676.435L678.165 1192.83Z" fill="#3F3D56"/>
<path d="M634.06 1192.83H628.871L630.601 1091.69H632.33L634.06 1192.83Z" fill="#3F3D56"/>
<path d="M659.139 1026.29L667.515 1013.37C665.031 1006.53 662.162 999.826 658.922 993.302L653.506 997.667L657.794 991.053C653.707 983.026 650.491 977.968 650.491 977.968C650.491 977.968 633.693 1004.38 628.08 1032.35L638.829 1048.92L626.93 1039.33C626.506 1042.59 626.288 1045.87 626.277 1049.16C626.277 1082.28 637.118 1109.13 650.491 1109.13C663.864 1109.13 674.705 1082.28 674.705 1049.16C674.705 1038.89 672.377 1028.15 669.166 1018.21L659.139 1026.29Z" fill="#E6E6E6"/>
<path d="M682.488 1028.02L690.864 1015.1C688.38 1008.25 685.511 1001.55 682.271 995.027L676.855 999.392L681.143 992.779C677.056 984.752 673.84 979.694 673.84 979.694C673.84 979.694 657.042 1006.11 651.43 1034.07L662.178 1050.65L650.279 1041.06C649.855 1044.32 649.637 1047.6 649.626 1050.88C649.626 1084 660.467 1110.85 673.84 1110.85C687.213 1110.85 698.054 1084 698.054 1050.88C698.054 1040.61 695.726 1029.87 692.515 1019.93L682.488 1028.02Z" fill="#EF0B62"/>
<path d="M638.384 1028.02L646.76 1015.1C644.276 1008.25 641.407 1001.55 638.167 995.027L632.751 999.392L637.039 992.779C632.952 984.752 629.736 979.694 629.736 979.694C629.736 979.694 612.938 1006.11 607.326 1034.07L618.074 1050.65L606.175 1041.06C605.751 1044.32 605.533 1047.6 605.522 1050.88C605.522 1084 616.363 1110.85 629.736 1110.85C643.109 1110.85 653.95 1084 653.95 1050.88C653.95 1040.61 651.622 1029.87 648.411 1019.93L638.384 1028.02Z" fill="#EF0B62"/>
<path d="M261.854 879.921H211.955V882.779H261.854V879.921Z" fill="#3F3D56"/>
<path d="M289.01 890.346H211.955V893.204H289.01V890.346Z" fill="#EF0B62"/>
<path d="M274.753 900.169H211.955V903.027H274.753V900.169Z" fill="#EF0B62"/>
<path d="M248.615 909.954H211.955V912.812H248.615V909.954Z" fill="#3F3D56"/>
<path d="M267.285 919.739H211.955V922.597H267.285V919.739Z" fill="#3F3D56"/>
<path d="M195.322 878.905H189.212V885.001H195.322V878.905Z" fill="#3F3D56"/>
<path d="M195.322 888.727H189.212V894.824H195.322V888.727Z" fill="#EF0B62"/>
<path d="M195.322 898.549H189.212V904.646H195.322V898.549Z" fill="#EF0B62"/>
<path d="M195.322 908.372H189.212V914.469H195.322V908.372Z" fill="#3F3D56"/>
<path d="M195.322 918.194H189.212V924.291H195.322V918.194Z" fill="#3F3D56"/>
<path d="M328.432 874.51H302.246C300.459 864.202 300.459 853.665 302.246 843.358H328.432C325.482 853.533 325.482 864.334 328.432 874.51Z" fill="#EF0B62"/>
<path d="M203.154 1102.34L217.441 1110.73C217.441 1110.73 243.074 1107.07 242.274 1116.05C241.474 1125.04 213.494 1123.31 213.494 1123.31L196.275 1112.72L203.154 1102.34Z" fill="#FFB8B8"/>
<path opacity="0.2" d="M157.562 1009.9L169.153 1054.79L189.707 1105.2L188.994 1106.95L164.481 1055.63L157.562 1009.9Z" fill="black"/>
<path d="M71.0802 1257.46L66.9927 1256.06L106.589 1138.7L112.313 1140.67L71.0802 1257.46Z" fill="#3F3D56"/>
<path d="M138.754 1281.7L143.078 1281.71L144.421 1144.53L138.368 1144.51L138.754 1281.7Z" fill="#3F3D56"/>
<path d="M61.0723 1069.74L72.9329 1117.57C74.5938 1124.27 78.052 1130.39 82.936 1135.28C87.82 1140.16 93.9454 1143.63 100.654 1145.3H100.654C133.732 1153.55 168.363 1153.33 201.331 1144.66L219.039 1140C229.329 1137.29 237.066 1128.47 237.798 1117.88C238.095 1114.13 237.415 1110.37 235.825 1106.97C235.756 1106.82 235.687 1106.68 235.617 1106.53C233.307 1101.8 229.745 1097.79 225.314 1094.93C220.884 1092.07 215.754 1090.48 210.48 1090.32L191.721 1089.71L123.403 1059.51C123.403 1059.51 99.9066 1047.6 80.5905 1046.27C67.834 1045.39 58.0011 1057.36 61.0723 1069.74Z" fill="#EF0B62"/>
<path d="M477.534 919.292H410.08V1010.76H477.534V919.292Z" fill="#E6E6E6"/>
<path d="M469.75 929.846H417.863V1000.2H469.75V929.846Z" fill="white"/>
<path d="M463.424 948.258H438.285V951.116H463.424V948.258Z" fill="#3F3D56"/>
<path d="M430.299 946.676H424.189V952.772H430.299V946.676Z" fill="#3F3D56"/>
<path d="M463.424 960.338H438.285V963.196H463.424V960.338Z" fill="#3F3D56"/>
<path d="M430.299 958.756H424.189V964.853H430.299V958.756Z" fill="#3F3D56"/>
<path d="M463.424 972.419H438.285V975.277H463.424V972.419Z" fill="#3F3D56"/>
<path d="M430.299 970.836H424.189V976.933H430.299V970.836Z" fill="#3F3D56"/>
<path d="M446.401 924.469C446.401 923.039 445.24 921.88 443.807 921.88C442.374 921.88 441.213 923.039 441.213 924.469C441.213 925.899 442.374 927.058 443.807 927.058C445.24 927.058 446.401 925.899 446.401 924.469Z" fill="#3F3D56"/>
</g>
</g>
<defs>
<clipPath id="clip0_9_238">
<rect width="1375" height="1025" fill="white" transform="translate(62 238)"/>
</clipPath>
<clipPath id="clip1_9_238">
<rect width="749.339" height="660.117" fill="white" transform="translate(-51.2842 621.595)"/>
</clipPath>
</defs>
</svg>
